HIERARCHY
ROOT Hips
{
	OFFSET -1.69194 87.34210 -81.38390
	CHANNELS 6 Xposition Yposition Zposition Zrotation Xrotation Yrotation
	JOINT Spine
	{
		OFFSET 0.00000 7.77975 0.00000
		CHANNELS 3 Zrotation Xrotation Yrotation
		JOINT Spine1
		{
			OFFSET -0.00002 22.65660 0.00007
			CHANNELS 3 Zrotation Xrotation Yrotation
			JOINT Neck
			{
				OFFSET 0.00000 24.94690 0.00000
				CHANNELS 3 Zrotation Xrotation Yrotation
				JOINT Head
				{
					OFFSET 0.00000 14.70560 1.89750
					CHANNELS 3 Zrotation Xrotation Yrotation
					End site
					{
						OFFSET 0.00000 0.00000 0.00000
					}
				}
			}
			JOINT LeftShoulder
			{
				OFFSET 3.79250 20.81930 -0.05065
				CHANNELS 3 Zrotation Xrotation Yrotation
				JOINT LeftArm
				{
					OFFSET 12.48180 -0.00001 0.00000
					CHANNELS 3 Zrotation Xrotation Yrotation
					JOINT LeftForeArm
					{
						OFFSET 28.71400 0.00001 0.00065
						CHANNELS 3 Zrotation Xrotation Yrotation
						JOINT LeftHand
						{
							OFFSET 23.41480 0.11657 0.32115
							CHANNELS 3 Zrotation Xrotation Yrotation
							JOINT LeftHandThumb1
							{
								OFFSET 2.04687 -2.32600 3.25639
								CHANNELS 3 Zrotation Xrotation Yrotation
								JOINT LeftHandThumb2
								{
									OFFSET 2.82028 0.00000 1.83932
									CHANNELS 3 Zrotation Xrotation Yrotation
									JOINT LeftHandThumb3
									{
										OFFSET 3.67316 0.00000 0.00000
										CHANNELS 3 Zrotation Xrotation Yrotation
										End site
										{
											OFFSET 0.00000 0.00000 0.00000
										}
									}
								}
							}
							JOINT LeftHandIndex1
							{
								OFFSET 8.37357 0.00000 3.25638
								CHANNELS 3 Zrotation Xrotation Yrotation
								JOINT LeftHandIndex2
								{
									OFFSET 4.85225 0.00000 0.00000
									CHANNELS 3 Zrotation Xrotation Yrotation
									JOINT LeftHandIndex3
									{
										OFFSET 2.42613 0.00000 0.00000
										CHANNELS 3 Zrotation Xrotation Yrotation
										End site
										{
											OFFSET 0.00000 0.00000 0.00000
										}
									}
								}
							}
							JOINT LeftHandMiddle1
							{
								OFFSET 8.37357 0.00000 1.07926
								CHANNELS 3 Zrotation Xrotation Yrotation
								JOINT LeftHandMiddle2
								{
									OFFSET 5.57266 0.00000 0.00000
									CHANNELS 3 Zrotation Xrotation Yrotation
									JOINT LeftHandMiddle3
									{
										OFFSET 3.03963 0.00000 0.00000
										CHANNELS 3 Zrotation Xrotation Yrotation
										End site
										{
											OFFSET 0.00000 0.00000 0.00000
										}
									}
								}
							}
							JOINT LeftHandRing1
							{
								OFFSET 7.90838 0.00000 -1.07926
								CHANNELS 3 Zrotation Xrotation Yrotation
								JOINT LeftHandRing2
								{
									OFFSET 5.51312 0.00000 0.00000
									CHANNELS 3 Zrotation Xrotation Yrotation
									JOINT LeftHandRing3
									{
										OFFSET 2.75656 0.00000 0.00000
										CHANNELS 3 Zrotation Xrotation Yrotation
										End site
										{
											OFFSET 0.00000 0.00000 0.00000
										}
									}
								}
							}
							JOINT LeftHandPinky1
							{
								OFFSET 7.44317 0.00000 -3.25639
								CHANNELS 3 Zrotation Xrotation Yrotation
								JOINT LeftHandPinky2
								{
									OFFSET 4.34662 0.00000 0.00000
									CHANNELS 3 Zrotation Xrotation Yrotation
									JOINT LeftHandPinky3
									{
										OFFSET 2.17331 0.00000 0.00000
										CHANNELS 3 Zrotation Xrotation Yrotation
										End site
										{
											OFFSET 0.00000 0.00000 0.00000
										}
									}
								}
							}
						}
					}
				}
			}
			JOINT RightShoulder
			{
				OFFSET -3.79391 20.81930 -0.05065
				CHANNELS 3 Zrotation Xrotation Yrotation
				JOINT RightArm
				{
					OFFSET -12.48180 0.00000 0.00000
					CHANNELS 3 Zrotation Xrotation Yrotation
					JOINT RightForeArm
					{
						OFFSET -28.71400 -0.00004 0.00012
						CHANNELS 3 Zrotation Xrotation Yrotation
						JOINT RightHand
						{
							OFFSET -23.76070 0.08180 0.14466
							CHANNELS 3 Zrotation Xrotation Yrotation
							JOINT RightHandThumb1
							{
								OFFSET -2.04687 -2.32600 3.25639
								CHANNELS 3 Zrotation Xrotation Yrotation
								JOINT RightHandThumb2
								{
									OFFSET -2.82029 0.00000 1.83932
									CHANNELS 3 Zrotation Xrotation Yrotation
									JOINT RightHandThumb3
									{
										OFFSET -3.67316 0.00000 0.00000
										CHANNELS 3 Zrotation Xrotation Yrotation
										End site
										{
											OFFSET 0.00000 0.00000 0.00000
										}
									}
								}
							}
							JOINT RightHandIndex1
							{
								OFFSET -8.37358 0.00000 3.25638
								CHANNELS 3 Zrotation Xrotation Yrotation
								JOINT RightHandIndex2
								{
									OFFSET -4.85225 0.00000 0.00000
									CHANNELS 3 Zrotation Xrotation Yrotation
									JOINT RightHandIndex3
									{
										OFFSET -2.42613 0.00000 0.00000
										CHANNELS 3 Zrotation Xrotation Yrotation
										End site
										{
											OFFSET 0.00000 0.00000 0.00000
										}
									}
								}
							}
							JOINT RightHandMiddle1
							{
								OFFSET -8.37357 0.00000 1.07926
								CHANNELS 3 Zrotation Xrotation Yrotation
								JOINT RightHandMiddle2
								{
									OFFSET -5.57266 0.00000 0.00000
									CHANNELS 3 Zrotation Xrotation Yrotation
									JOINT RightHandMiddle3
									{
										OFFSET -3.03964 0.00000 0.00000
										CHANNELS 3 Zrotation Xrotation Yrotation
										End site
										{
											OFFSET 0.00000 0.00000 0.00000
										}
									}
								}
							}
							JOINT RightHandRing1
							{
								OFFSET -7.90838 0.00000 -1.07926
								CHANNELS 3 Zrotation Xrotation Yrotation
								JOINT RightHandRing2
								{
									OFFSET -5.51312 0.00000 0.00000
									CHANNELS 3 Zrotation Xrotation Yrotation
									JOINT RightHandRing3
									{
										OFFSET -2.75656 0.00000 0.00000
										CHANNELS 3 Zrotation Xrotation Yrotation
										End site
										{
											OFFSET 0.00000 0.00000 0.00000
										}
									}
								}
							}
							JOINT RightHandPinky1
							{
								OFFSET -7.44318 0.00000 -3.25640
								CHANNELS 3 Zrotation Xrotation Yrotation
								JOINT RightHandPinky2
								{
									OFFSET -4.34662 0.00000 0.00000
									CHANNELS 3 Zrotation Xrotation Yrotation
									JOINT RightHandPinky3
									{
										OFFSET -2.17330 0.00000 0.00000
										CHANNELS 3 Zrotation Xrotation Yrotation
										End site
										{
											OFFSET 0.00000 0.00000 0.00000
										}
									}
								}
							}
						}
					}
				}
			}
		}
	}
	JOINT LeftUpLeg
	{
		OFFSET 9.48751 0.00000 0.00000
		CHANNELS 3 Zrotation Xrotation Yrotation
		JOINT LeftLeg
		{
			OFFSET 0.00002 -35.71600 -0.00019
			CHANNELS 3 Zrotation Xrotation Yrotation
			JOINT LeftFoot
			{
				OFFSET 0.05770 -40.85830 0.04629
				CHANNELS 3 Zrotation Xrotation Yrotation
				JOINT LeftToeBase
				{
					OFFSET 0.00000 -6.16687 14.23120
					CHANNELS 3 Zrotation Xrotation Yrotation
					End site
					{
						OFFSET 0.00000 0.00000 0.00000
					}
				}
			}
		}
	}
	JOINT RightUpLeg
	{
		OFFSET -9.48751 0.00000 0.00000
		CHANNELS 3 Zrotation Xrotation Yrotation
		JOINT RightLeg
		{
			OFFSET -0.00003 -35.71600 -0.00022
			CHANNELS 3 Zrotation Xrotation Yrotation
			JOINT RightFoot
			{
				OFFSET 0.27801 -40.38490 0.04977
				CHANNELS 3 Zrotation Xrotation Yrotation
				JOINT RightToeBase
				{
					OFFSET 0.00000 -6.16687 14.23120
					CHANNELS 3 Zrotation Xrotation Yrotation
					End site
					{
						OFFSET 0.00000 0.00000 0.00000
					}
				}
			}
		}
	}
}
MOTION
Frames: 4
Frame Time: 0.050000
64.88735136660183 96.18488311767578 29.03647229310745 -14.893662459801453 8.682995340389036 -113.92047720414423 0.05979518606890336 4.7186175723893315 -3.3502403425700322 0.4046031292951693 9.389508974144606 -6.746448195302528 0.4019197409906671 4.095681988335806 -0.10918958687198888 7.486330748268126 20.98371058585247 -52.980624943559626 -0.15918639051971256 0.2533406623350708 4.800408496372377 -52.307252212525604 63.127897137756015 31.827693114843523 -11.600209528713195 8.451066668066307 -88.51871407133449 5.981338650154575 -6.334069094119443 -5.0879122595677355 -15.9914 4.213524 -13.04145 -1e-06 -0.0 14.67867 0.0 0.0 44.48403 -38.20135 2.359717 11.8338 -41.12209 0.0 0.0 -41.12209 0.0 0.0 1.607976 -0.081748 -0.054387 -5.005416 0.0 0.0 -5.003379 0.0 0.0 1.577437 1.378345 4.165629 -5.010535 0.0 0.0 -5.010535 0.0 0.0 0.399872 2.558528 8.254551 -5.997952 0.0 0.0 -5.996794 0.0 0.0 -5.9205817293066065 -0.7233714245006153 20.654849808272058 117.51619582512225 -8.93949233696143 74.27792325051159 -3.072944704130819 6.833105449667203 67.51099097208626 -2.309863725883741 7.710965496465603 6.103370147002342 9.614134 -4.896591 22.12875 0.0 0.0 3.231176 0.0 0.0 -26.57245 43.9976 2.163135 -12.06773 46.33478 0.0 0.0 46.32685 0.0 0.0 55.90439 1.784505 -1.571804 56.82001 0.0 0.0 56.82001 0.0 0.0 55.14419 -2.290141 -1.147244 56.19355 0.0 0.0 56.1975 0.0 0.0 55.49405 -4.166969 -0.018178 56.67761 0.0 0.0 56.67761 0.0 0.0 0.2524428573205551 7.026585206348168 19.25463247410448 1.8030095672029824 32.71779021857696 8.607172622556002 -0.29390771728421106 -20.145646200291182 -2.1742309097188097 -0.0014139953653820986 0.10583191987677897 -0.006481283867822594 -13.220987778768224 -0.45571200450325255 -29.619944868495725 -6.9124746980278235 41.095560287584334 -21.38534863653035 2.3766769230685005 -4.556609514987103 18.849231405453686 0.00021223510281195601 0.11682015428113393 0.003920954146141241
66.92175455178634 95.38953399658203 26.67892715718175 -15.247481282200646 9.950100556659459 -116.66420952683072 1.252781590150863 3.1635872905841813 -4.565963719673449 3.3195074117174044 5.794699193919585 -9.432544889346024 0.6905927274145318 4.348722028043506 0.06412952085633405 1.8619152511813806 28.49188777970247 -42.47871062182541 -1.6555187697843714 0.04446464670363461 6.337844534537202 -67.2142708331955 58.614887235675596 49.95050869240652 -9.336113094339762 7.65488964137572 -87.09818730506085 6.2665196929036755 -2.584554684784303 -14.886326362370564 -15.9914 4.213524 -13.04145 -1e-06 -0.0 14.67867 0.0 0.0 44.48403 -38.20135 2.359717 11.8338 -41.12209 0.0 0.0 -41.12209 0.0 0.0 1.607976 -0.081748 -0.054387 -5.005416 0.0 0.0 -5.003379 0.0 0.0 1.577437 1.378345 4.165629 -5.010535 0.0 0.0 -5.010535 0.0 0.0 0.399872 2.558528 8.254551 -5.997952 0.0 0.0 -5.996794 0.0 0.0 3.220111655223849 -1.1520256734006622 17.331124715287974 115.31427388538543 -3.8496396265375825 53.349135619708946 1.7039837406974778 4.136697753801858 74.05885042006352 1.6689362157764365 6.657460327721961 12.500490195574367 9.614134 -4.896591 22.12875 0.0 0.0 3.231176 0.0 0.0 -26.57245 43.9976 2.163135 -12.06773 46.33478 0.0 0.0 46.32685 0.0 0.0 55.90439 1.784505 -1.571804 56.82001 0.0 0.0 56.82001 0.0 0.0 55.14419 -2.290141 -1.147244 56.19355 0.0 0.0 56.1975 0.0 0.0 55.49405 -4.166969 -0.018178 56.67761 0.0 0.0 56.67761 0.0 0.0 4.037836414122987 5.718626296911099 18.358484798007545 1.6143881182358928 35.516352395372174 8.47491398113739 0.30618147436947374 -21.38203182669828 -1.509361192997532 -0.001460655255536976 0.07387016108848912 0.0013449508051436097 -8.022976755840377 14.119706203293083 -15.106923959037946 -4.43010213002429 19.362022412791276 -23.38850699823601 5.015821244313611 -5.625546365433926 19.509170977291387 0.0006983686641365115 0.09435548418524527 0.007690379505750319
68.97065341170862 95.76995849609375 25.262026140389647 -13.308686012246975 10.222513264875127 -119.35712351962677 1.4561151949432847 3.749491291969226 -5.354769285134871 3.407606087565077 6.260552565827761 -11.1835937762319 0.6555472287254329 5.111293569292251 0.07447455670466155 -2.5700193964151086 20.934700616847383 -36.41502509908975 -2.325437995816773 -0.24403849261293697 6.241133281354441 -63.08189802755899 53.22817687232917 45.38007994955429 -15.927611313908647 6.399148289289735 -77.17508813982026 2.768883842551827 -4.387302622102689 -20.80569609042199 -15.9914 4.213524 -13.04145 -1e-06 -0.0 14.67867 0.0 0.0 44.48403 -38.20135 2.359717 11.8338 -41.12209 0.0 0.0 -41.12209 0.0 0.0 1.607976 -0.081748 -0.054387 -5.005416 0.0 0.0 -5.003379 0.0 0.0 1.577437 1.378345 4.165629 -5.010535 0.0 0.0 -5.010535 0.0 0.0 0.399872 2.558528 8.254551 -5.997952 0.0 0.0 -5.996794 0.0 0.0 9.023103178878765 -2.084550549273306 13.10651122584678 119.48197620286827 6.219422534250941 48.03692068895117 0.4381978127654732 3.9662304253800817 71.08930837080884 -9.927096097710042 6.5001552702490155 20.83090291018036 9.614134 -4.896591 22.12875 0.0 0.0 3.231176 0.0 0.0 -26.57245 43.9976 2.163135 -12.06773 46.33478 0.0 0.0 46.32685 0.0 0.0 55.90439 1.784505 -1.571804 56.82001 0.0 0.0 56.82001 0.0 0.0 55.14419 -2.290141 -1.147244 56.19355 0.0 0.0 56.1975 0.0 0.0 55.49405 -4.166969 -0.018178 56.67761 0.0 0.0 56.67761 0.0 0.0 7.0440369733593 5.6621206085612314 22.07588085796625 1.1823047033937777 31.96728257528558 8.206911512745213 0.8263575932149299 -19.760832120484217 -1.562575649059137 0.001124907000015895 0.09055690546170475 0.004201141625796546 -2.0367204545335884 23.454037879349077 -17.16636316320512 -2.0589614609261573 7.58365181657779 -21.285858631191527 10.954416393139862 6.737585230055236 25.219832687234444 0.0035066741157987876 0.12916351740369136 0.0018225099635458158
72.61198599593598 95.98674011230469 23.168182476219535 -13.813705019050994 9.88701924043636 -123.43745513881393 0.6267339140456352 4.322689450726152 -6.525360524597448 2.4188309055962955 7.8953094900578975 -13.780673148270349 0.7369426350022132 5.208938175777396 0.031156358220964457 -2.2522830986188964 17.07591036555585 -33.16492217602585 -3.5493631734676976 -0.6759723083187399 6.1296596467441855 -75.26459258357421 44.994184334068976 57.7129795136003 -15.302576722438808 4.488372090127189 -77.58721566146757 3.0787136555634063 -6.578323793914292 -16.47084816086639 -15.9914 4.213524 -13.04145 -1e-06 -0.0 14.67867 0.0 0.0 44.48403 -38.20135 2.359717 11.8338 -41.12209 0.0 0.0 -41.12209 0.0 0.0 1.607976 -0.081748 -0.054387 -5.005416 0.0 0.0 -5.003379 0.0 0.0 1.577437 1.378345 4.165629 -5.010535 0.0 0.0 -5.010535 0.0 0.0 0.399872 2.558528 8.254551 -5.997952 0.0 0.0 -5.996794 0.0 0.0 12.697861553751013 -2.0961521065709148 16.41773715878737 129.35462490769558 20.554548394773505 33.205980622328 3.6079676697659564 4.318778578749848 70.99863254026374 7.424233843284723 8.564612087533563 17.634618800034787 9.614134 -4.896591 22.12875 0.0 0.0 3.231176 0.0 0.0 -26.57245 43.9976 2.163135 -12.06773 46.33478 0.0 0.0 46.32685 0.0 0.0 55.90439 1.784505 -1.571804 56.82001 0.0 0.0 56.82001 0.0 0.0 55.14419 -2.290141 -1.147244 56.19355 0.0 0.0 56.1975 0.0 0.0 55.49405 -4.166969 -0.018178 56.67761 0.0 0.0 56.67761 0.0 0.0 8.984384695237596 5.98076943510144 25.759039374966395 1.3178086268639255 33.236422479568866 8.082868388272786 1.6861216238356738 -17.319112163855934 -0.9453632802228463 0.003881628997393636 0.07540553055348709 0.0016091996874699828 -0.38224920357590025 26.291711541567928 -13.903832427493036 -1.4963999282908447 6.284114290748209 -20.79681409096988 6.0550304307388645 -3.733697150813974 20.271022177026165 0.0013046541843896506 0.11121315946348542 0.00601695961183264
